<svg viewBox="0 0 366 434" fill="none" xmlns="http://www.w3.org/2000/svg">
<path d="M462.209 104.9C462.209 245.027 325.661 363.804 170.093 400.513C-14.9958 429.664 -190.01 416.262 -190.01 276.135C-190.01 136.008 -10.7252 -87.4971 148.545 -87.4971C307.815 -87.4971 462.209 -35.227 462.209 104.9Z" fill="#D6E9FB"/>
<path d="M476.905 120.572C473.293 191.684 435.588 255.238 378.951 304.452C322.315 353.665 246.757 388.529 167.465 402.262C73.4747 411.227 -17.4069 409.543 -83.8807 387.84C-117.117 376.989 -144.238 361.138 -162.599 339.123C-180.957 317.113 -190.568 288.927 -188.763 253.381C-185.152 182.27 -135.332 92.7925 -66.3384 22.34C2.65655 -48.1134 90.7757 -99.4899 170.943 -94.4701C251.169 -89.4466 329.476 -71.2291 386.817 -36.4918C444.15 -1.75906 480.515 49.4805 476.905 120.572Z" stroke="black" stroke-width="0.339949"/>
</svg>
