<svg viewBox="0 0 1440 713" fill="none" xmlns="http://www.w3.org/2000/svg">
<path d="M1509 -1.5C1509 322.967 1157.9 598 757.904 683C282 750.5 -168 719.467 -168 395C-168 70.5327 292.981 -447 702.5 -447C1112.02 -447 1509 -325.967 1509 -1.5Z" fill="#D6E9FB"/>
<path d="M1546.73 34.7852C1537.44 199.391 1440.53 346.523 1294.91 460.472C1149.3 574.416 955.029 655.144 751.155 686.942C509.484 707.701 275.809 703.802 104.894 653.55C19.4372 628.424 -50.2877 591.722 -97.4849 540.761C-144.669 489.814 -169.369 424.583 -164.73 342.314C-160.09 260.026 -125.762 167.089 -70.4004 74.3154C-15.0423 -18.4523 61.3288 -111.025 150.014 -192.58C327.403 -355.705 553.965 -474.664 760.086 -463.041C966.365 -451.409 1167.71 -409.226 1315.14 -328.794C1462.55 -248.371 1556 -129.753 1546.73 34.7852Z" stroke="black"/>
</svg>
